<svg width="46" height="46" viewBox="0 0 46 46" fill="none" xmlns="http://www.w3.org/2000/svg">
<path d="M34.9791 6.22913C35.3265 6.22914 35.6621 6.35494 35.9239 6.58326C36.1857 6.81158 36.356 7.12698 36.4032 7.47113L36.4166 7.66663V38.3333C36.4165 38.6975 36.2782 39.0481 36.0295 39.3142C35.7809 39.5804 35.4405 39.7422 35.0771 39.767C34.7138 39.7918 34.3545 39.6778 34.072 39.448C33.7895 39.2181 33.6047 38.8896 33.5551 38.5288L33.5416 38.3333V28.75H29.2291C28.8818 28.7499 28.5462 28.6241 28.2844 28.3958C28.0226 28.1675 27.8523 27.8521 27.8051 27.508L27.7916 27.3125V13.4166C27.7916 11.5104 28.5489 9.68221 29.8968 8.3343C31.2447 6.98638 33.0729 6.22913 34.9791 6.22913ZM23.4791 6.22913C23.8265 6.22914 24.1621 6.35494 24.4239 6.58326C24.6857 6.81158 24.856 7.12698 24.9032 7.47113L24.9166 7.66663V15.3333C24.9166 19.0765 22.2333 22.1911 18.6875 22.8658V38.3333C18.6874 38.6975 18.549 39.0481 18.3004 39.3142C18.0517 39.5804 17.7113 39.7422 17.348 39.767C16.9846 39.7918 16.6254 39.6778 16.3428 39.448C16.0603 39.2181 15.8755 38.8896 15.8259 38.5288L15.8125 38.3333V22.8658C14.1273 22.5436 12.5988 21.6657 11.4713 20.3725C10.3438 19.0792 9.68241 17.4453 9.5929 15.732L9.58331 15.3333V7.66663C9.58342 7.30241 9.72178 6.95182 9.97043 6.68569C10.2191 6.41956 10.5595 6.25773 10.9228 6.23291C11.2862 6.20809 11.6454 6.32211 11.928 6.55195C12.2105 6.7818 12.3953 7.11031 12.4449 7.47113L12.4583 7.66663V15.3333C12.4583 17.48 13.869 19.295 15.8125 19.9065V7.66663C15.8126 7.30241 15.9509 6.95182 16.1996 6.68569C16.4482 6.41956 16.7886 6.25773 17.152 6.23291C17.5154 6.20809 17.8746 6.32211 18.1571 6.55195C18.4397 6.7818 18.6244 7.11031 18.6741 7.47113L18.6875 7.66663V19.9045C19.6021 19.6163 20.4093 19.0604 21.0048 18.3088C21.6003 17.5571 21.9568 16.6442 22.0282 15.6879L22.0416 15.3333V7.66663C22.0416 7.28538 22.1931 6.91974 22.4627 6.65016C22.7323 6.38058 23.0979 6.22913 23.4791 6.22913ZM33.5416 25.875V9.34946C32.7537 9.62831 32.0637 10.1299 31.5554 10.7934C31.0471 11.4569 30.7423 12.2536 30.6781 13.087L30.6666 13.4166V25.875H33.5416Z" fill="#383838"/>
</svg>
