<svg width="21" height="20" viewBox="0 0 21 20" fill="none" xmlns="http://www.w3.org/2000/svg">
<path d="M13.4998 9.00002V9.01002M3.67283 6.37802C3.23423 6.04092 2.89737 5.58912 2.69949 5.07255C2.50161 4.55597 2.45041 3.99475 2.55154 3.4509C2.65268 2.90704 2.90222 2.40174 3.27258 1.99084C3.64294 1.57995 4.1197 1.27945 4.65016 1.12257C5.18063 0.965682 5.74414 0.958522 6.27842 1.10188C6.8127 1.24523 7.29694 1.53352 7.67762 1.93487C8.0583 2.33623 8.3206 2.83502 8.43552 3.37613C8.55045 3.91724 8.51352 4.47958 8.32883 5.00102" stroke="#02A89D" stroke-width="2" stroke-linecap="round" stroke-linejoin="round"/>
<path d="M14.5 2V5.803C15.7376 6.51912 16.6799 7.65245 17.158 9H18.499C18.7642 9 19.0186 9.10536 19.2061 9.29289C19.3937 9.48043 19.499 9.73478 19.499 10V12C19.499 12.2652 19.3937 12.5196 19.2061 12.7071C19.0186 12.8946 18.7642 13 18.499 13H17.157C16.821 13.95 16.25 14.8 15.499 15.473V17.5C15.499 17.8978 15.341 18.2794 15.0597 18.5607C14.7784 18.842 14.3968 19 13.999 19C13.6012 19 13.2197 18.842 12.9384 18.5607C12.657 18.2794 12.499 17.8978 12.499 17.5V16.917C12.1686 16.9724 11.8341 17.0001 11.499 17H7.49901C7.16396 17.0001 6.82947 16.9724 6.49901 16.917V17.5C6.49901 17.8978 6.34098 18.2794 6.05967 18.5607C5.77837 18.842 5.39684 19 4.99901 19C4.60119 19 4.21966 18.842 3.93835 18.5607C3.65705 18.2794 3.49901 17.8978 3.49901 17.5V15.473C2.59298 14.663 1.95429 13.5969 1.6675 12.4159C1.3807 11.2348 1.45933 9.99457 1.89296 8.85922C2.32659 7.72387 3.09478 6.74697 4.09585 6.05783C5.09692 5.36869 6.28367 4.9998 7.49901 5H9.99901L14.499 2H14.5Z" stroke="#02A89D" stroke-width="2" stroke-linecap="round" stroke-linejoin="round"/>
</svg>
