<svg width="25" height="24" viewBox="0 0 25 24" fill="none" xmlns="http://www.w3.org/2000/svg">
<path d="M5.5 22C4.95 22 4.479 21.804 4.087 21.412C3.695 21.02 3.49934 20.5493 3.5 20V6C3.5 5.45 3.696 4.979 4.088 4.587C4.48 4.195 4.95067 3.99933 5.5 4H6.5V2H8.5V4H16.5V2H18.5V4H19.5C20.05 4 20.521 4.196 20.913 4.588C21.305 4.98 21.5007 5.45067 21.5 6V12H19.5V10H5.5V20H12.5V22H5.5ZM22.625 17L20.5 14.875L21.225 14.15C21.4083 13.9667 21.6417 13.875 21.925 13.875C22.2083 13.875 22.4417 13.9667 22.625 14.15L23.35 14.875C23.5333 15.0583 23.625 15.2917 23.625 15.575C23.625 15.8583 23.5333 16.0917 23.35 16.275L22.625 17ZM14.5 23V20.875L19.8 15.575L21.925 17.7L16.625 23H14.5Z" fill="#02A89D"/>
</svg>
