<svg width="25" height="24" viewBox="0 0 25 24" fill="none" xmlns="http://www.w3.org/2000/svg">
<path d="M9.99973 6.99995C10.8297 6.99995 11.4997 7.66995 11.4997 8.49995C11.4997 9.32995 10.8297 9.99995 9.99973 9.99995C9.16973 9.99995 8.49973 9.32995 8.49973 8.49995C8.49973 7.66995 9.16973 6.99995 9.99973 6.99995ZM14.9997 13.9999C15.8297 13.9999 16.4997 14.6699 16.4997 15.4999C16.4997 16.3299 15.8297 16.9999 14.9997 16.9999C14.1697 16.9999 13.4997 16.3299 13.4997 15.4999C13.4997 14.6699 14.1697 13.9999 14.9997 13.9999ZM8.90973 16.9999L7.49973 15.5899L16.0897 6.99995L17.4997 8.40995L8.90973 16.9999ZM19.1497 2.84995L19.7597 6.70995L23.2697 8.49995L21.4997 11.9999L23.2797 15.4999L19.7397 17.2899L19.1297 21.1499L15.2397 20.5399L12.4697 23.3099L9.68973 20.4999L5.82973 21.1399L5.20973 17.2499L1.71973 15.4699L3.49973 11.9699L1.72973 8.49995L5.23973 6.68995L5.84973 2.86995L9.71973 3.49995L12.4997 0.694946L15.2597 3.45995L19.1497 2.84995ZM20.5997 9.36995L17.9997 7.99995L17.4997 5.10995L14.5997 5.52995L12.4997 3.49995L10.3997 5.52995L7.49973 5.10995L6.99973 7.99995L4.39973 9.36995L5.69973 11.9999L4.39973 14.6299L6.99973 15.9999L7.49973 18.8899L10.3997 18.4699L12.4997 20.4999L14.5997 18.4699L17.4997 18.8899L17.9997 15.9999L20.5997 14.6299L19.2997 11.9999L20.5997 9.36995Z" fill="#02A89D"/>
</svg>
