<?xml version="1.0" encoding="utf-8"?>
<!-- Generator: Adobe Illustrator 23.1.1, SVG Export Plug-In . SVG Version: 6.00 Build 0)  -->
<svg version="1.1" id="Layer_1" xmlns="http://www.w3.org/2000/svg" xmlns:xlink="http://www.w3.org/1999/xlink" x="0px" y="0px"
	 width="184px" height="52px" viewBox="0 0 184 52" style="enable-background:new 0 0 184 52;" xml:space="preserve">
<style type="text/css">
	.st0{fill:#FFFF00;}
	.st1{opacity:0.27;}
	.st2{fill:#FFFFFF;}
	.st3{fill:#BCCB32;}
	.st4{fill:#FF0000;}
</style>
<g>
	<rect x="1.6" y="2.1" class="st0" width="180.9" height="49"/>
	<g>
		<g class="st1">
			<path class="st2" d="M183.4,53.2H-0.3V1.5h183.7V53.2z M2.6,50.2h177.8V4.4H2.6V50.2z"/>
		</g>
		<g>
			<g>
				<g>
					<path class="st3" d="M29.8,11.9l-4.7,31.2h-2.4l-2.5-19.4l-2.5,19.4h-2.4l-4.7-31.2H14l2.4,18l2.6-18h2.4L24,30.1l2.4-18.1
						H29.8z"/>
				</g>
				<g>
					<path class="st3" d="M46.1,37.2c0,1.7-0.6,3.2-1.8,4.5c-1.2,1.2-2.7,1.9-4.5,1.9c-1.7,0-3.2-0.6-4.4-1.9
						c-1.2-1.2-1.8-2.7-1.8-4.5V17.9c0-1.7,0.6-3.2,1.8-4.5c1.2-1.2,2.7-1.9,4.4-1.9c1.8,0,3.3,0.6,4.5,1.9c1.2,1.2,1.8,2.7,1.8,4.5
						V37.2z M42.8,37.2V17.9c0-0.8-0.3-1.5-0.9-2.1c-0.6-0.6-1.3-0.9-2.1-0.9c-0.8,0-1.5,0.3-2.1,0.9c-0.6,0.6-0.9,1.3-0.9,2.1v19.3
						c0,0.8,0.3,1.5,0.9,2.1s1.3,0.9,2.1,0.9c0.8,0,1.5-0.3,2.1-0.9C42.5,38.7,42.8,38,42.8,37.2z"/>
				</g>
				<g>
					<path class="st3" d="M69,11.9l-4.7,31.2h-2.4l-2.5-19.4l-2.5,19.4h-2.4l-4.7-31.2h3.4l2.4,18l2.6-18h2.4l2.6,18.1l2.4-18.1H69z
						"/>
				</g>
			</g>
			<g>
				<path class="st3" d="M85.7,36.8c0,1.7-0.6,3.2-1.8,4.5c-1.2,1.2-2.7,1.9-4.5,1.9h-6.3V11.9h6.3c1.8,0,3.3,0.6,4.5,1.9
					c1.2,1.2,1.8,2.7,1.8,4.5v3.7c0,1.8-0.7,3.4-2,4.6c1.4,1.3,2,2.8,2,4.6V36.8z M82.3,22v-3.7c0-0.8-0.3-1.5-0.9-2.1
					c-0.6-0.6-1.3-0.9-2.1-0.9h-2.9v9.6h2.9c0.8,0,1.5-0.3,2.1-0.9C82,23.5,82.3,22.8,82.3,22z M82.3,36.8v-5.6
					c0-0.8-0.3-1.5-0.9-2.1c-0.6-0.6-1.3-0.9-2.1-0.9h-2.9v11.5h2.9c0.8,0,1.5-0.3,2.1-0.9C82,38.3,82.3,37.6,82.3,36.8z"/>
			</g>
			<g>
				<path class="st3" d="M102.8,37.2c0,1.7-0.6,3.2-1.8,4.5c-1.2,1.2-2.7,1.9-4.5,1.9c-1.7,0-3.2-0.6-4.4-1.9
					c-1.2-1.2-1.8-2.7-1.8-4.5V11.9h3.4v25.3c0,0.8,0.3,1.5,0.9,2.1c0.6,0.6,1.3,0.9,2.1,0.9c0.8,0,1.5-0.3,2.1-0.9s0.9-1.3,0.9-2.1
					V11.9h3.4L102.8,37.2L102.8,37.2z"/>
			</g>
			<g>
				<path class="st3" d="M120.2,43.1h-3.5l-3.3-13h-2.8v13h-3.4V11.9h6.3c1.8,0,3.3,0.6,4.5,1.9c1.2,1.2,1.8,2.7,1.8,4.5v5.6
					c0,2.5-1.1,4.3-3.2,5.5L120.2,43.1z M116.7,23.8v-5.6c0-0.8-0.3-1.5-0.9-2.1c-0.6-0.6-1.3-0.9-2.1-0.9h-2.9v11.5h2.9
					c0.8,0,1.5-0.3,2.1-0.9C116.4,25.3,116.7,24.6,116.7,23.8z"/>
			</g>
			<g>
				<path class="st3" d="M137.2,43.1h-1.9l-0.6-0.9c-1.1,0.9-2.4,1.3-3.9,1.3c-1.7,0-3.2-0.6-4.4-1.9c-1.2-1.2-1.8-2.7-1.8-4.5V17.9
					c0-1.7,0.6-3.2,1.8-4.5c1.2-1.2,2.7-1.9,4.4-1.9c1.8,0,3.3,0.6,4.5,1.9c1.2,1.2,1.8,2.7,1.8,4.5v4.8h-3.4v-4.8
					c0-0.8-0.3-1.5-0.9-2.1c-0.6-0.6-1.3-0.9-2.1-0.9c-0.8,0-1.5,0.3-2.1,0.9c-0.6,0.6-0.9,1.3-0.9,2.1v19.3c0,0.8,0.3,1.5,0.9,2.1
					c0.6,0.6,1.3,0.9,2.1,0.9c0.8,0,1.5-0.3,2.1-0.9c0.6-0.6,0.9-1.3,0.9-2.1v-7.1h-3.7v-3.4h7.1L137.2,43.1L137.2,43.1z"/>
			</g>
			<g>
				<path class="st3" d="M154.4,43.1h-12.6V11.9h12.6v3.4h-9.2v9.6h9.2v3.4h-9.2v11.5h9.2V43.1z"/>
			</g>
			<g>
				<path class="st3" d="M171.7,43.1h-3.5l-3.3-13h-2.8v13h-3.4V11.9h6.3c1.8,0,3.3,0.6,4.5,1.9c1.2,1.2,1.8,2.7,1.8,4.5v5.6
					c0,2.5-1.1,4.3-3.2,5.5L171.7,43.1z M168.2,23.8v-5.6c0-0.8-0.3-1.5-0.9-2.1c-0.6-0.6-1.3-0.9-2.1-0.9h-2.9v11.5h2.9
					c0.8,0,1.5-0.3,2.1-0.9C167.9,25.3,168.2,24.6,168.2,23.8z"/>
			</g>
		</g>
		<g>
			<g>
				<path class="st4" d="M31,10.6l-4.7,31.2H24l-2.5-19.4l-2.5,19.4h-2.4l-4.7-31.2h3.4l2.4,18l2.6-18h2.4l2.6,18.1l2.4-18.1H31z"/>
			</g>
			<g>
				<path class="st4" d="M47.4,35.9c0,1.7-0.6,3.2-1.8,4.5c-1.2,1.2-2.7,1.9-4.5,1.9c-1.7,0-3.2-0.6-4.4-1.9
					c-1.2-1.2-1.8-2.7-1.8-4.5V16.5c0-1.7,0.6-3.2,1.8-4.5c1.2-1.2,2.7-1.9,4.4-1.9c1.8,0,3.3,0.6,4.5,1.9c1.2,1.2,1.8,2.7,1.8,4.5
					V35.9z M44,35.9V16.5c0-0.8-0.3-1.5-0.9-2.1c-0.6-0.6-1.3-0.9-2.1-0.9c-0.8,0-1.5,0.3-2.1,0.9c-0.6,0.6-0.9,1.3-0.9,2.1v19.3
					c0,0.8,0.3,1.5,0.9,2.1s1.3,0.9,2.1,0.9c0.8,0,1.5-0.3,2.1-0.9C43.7,37.4,44,36.7,44,35.9z"/>
			</g>
			<g>
				<path class="st4" d="M70.3,10.6l-4.7,31.2h-2.4l-2.5-19.4l-2.5,19.4h-2.4l-4.7-31.2h3.4l2.4,18l2.6-18h2.4l2.6,18.1l2.4-18.1
					H70.3z"/>
			</g>
		</g>
		<g>
			<path class="st4" d="M86.9,35.5c0,1.7-0.6,3.2-1.8,4.5c-1.2,1.2-2.7,1.9-4.5,1.9h-6.3V10.6h6.3c1.8,0,3.3,0.6,4.5,1.9
				c1.2,1.2,1.8,2.7,1.8,4.5v3.7c0,1.8-0.7,3.4-2,4.6c1.4,1.3,2,2.8,2,4.6V35.5z M83.6,20.6v-3.7c0-0.8-0.3-1.5-0.9-2.1
				c-0.6-0.6-1.3-0.9-2.1-0.9h-2.9v9.6h2.9c0.8,0,1.5-0.3,2.1-0.9C83.3,22.1,83.6,21.4,83.6,20.6z M83.6,35.5v-5.6
				c0-0.8-0.3-1.5-0.9-2.1c-0.6-0.6-1.3-0.9-2.1-0.9h-2.9v11.5h2.9c0.8,0,1.5-0.3,2.1-0.9C83.3,37,83.6,36.3,83.6,35.5z"/>
		</g>
		<g>
			<path class="st4" d="M104.1,35.9c0,1.7-0.6,3.2-1.8,4.5c-1.2,1.2-2.7,1.9-4.5,1.9c-1.7,0-3.2-0.6-4.4-1.9
				c-1.2-1.2-1.8-2.7-1.8-4.5V10.6h3.4v25.3c0,0.8,0.3,1.5,0.9,2.1c0.6,0.6,1.3,0.9,2.1,0.9c0.8,0,1.5-0.3,2.1-0.9s0.9-1.3,0.9-2.1
				V10.6h3.4L104.1,35.9L104.1,35.9z"/>
		</g>
		<g>
			<path class="st4" d="M121.5,41.8H118l-3.3-13H112v13h-3.4V10.6h6.3c1.8,0,3.3,0.6,4.5,1.9c1.2,1.2,1.8,2.7,1.8,4.5v5.6
				c0,2.5-1.1,4.3-3.2,5.5L121.5,41.8z M117.9,22.5v-5.6c0-0.8-0.3-1.5-0.9-2.1c-0.6-0.6-1.3-0.9-2.1-0.9H112v11.5h2.9
				c0.8,0,1.5-0.3,2.1-0.9C117.6,24,117.9,23.3,117.9,22.5z"/>
		</g>
		<g>
			<path class="st4" d="M138.4,41.8h-1.9l-0.6-0.9c-1.1,0.9-2.4,1.3-3.9,1.3c-1.7,0-3.2-0.6-4.4-1.9c-1.2-1.2-1.8-2.7-1.8-4.5V16.5
				c0-1.7,0.6-3.2,1.8-4.5c1.2-1.2,2.7-1.9,4.4-1.9c1.8,0,3.3,0.6,4.5,1.9c1.2,1.2,1.8,2.7,1.8,4.5v4.8h-3.4v-4.8
				c0-0.8-0.3-1.5-0.9-2.1c-0.6-0.6-1.3-0.9-2.1-0.9c-0.8,0-1.5,0.3-2.1,0.9c-0.6,0.6-0.9,1.3-0.9,2.1v19.3c0,0.8,0.3,1.5,0.9,2.1
				c0.6,0.6,1.3,0.9,2.1,0.9c0.8,0,1.5-0.3,2.1-0.9c0.6-0.6,0.9-1.3,0.9-2.1v-7.1h-3.7v-3.4h7.1L138.4,41.8L138.4,41.8z"/>
		</g>
		<g>
			<path class="st4" d="M155.6,41.8H143V10.6h12.6v3.4h-9.2v9.6h9.2v3.4h-9.2v11.5h9.2V41.8z"/>
		</g>
		<g>
			<path class="st4" d="M173,41.8h-3.5l-3.3-13h-2.8v13h-3.4V10.6h6.3c1.8,0,3.3,0.6,4.5,1.9c1.2,1.2,1.8,2.7,1.8,4.5v5.6
				c0,2.5-1.1,4.3-3.2,5.5L173,41.8z M169.4,22.5v-5.6c0-0.8-0.3-1.5-0.9-2.1c-0.6-0.6-1.3-0.9-2.1-0.9h-2.9v11.5h2.9
				c0.8,0,1.5-0.3,2.1-0.9C169.1,24,169.4,23.3,169.4,22.5z"/>
		</g>
		<g>
			<path class="st4" d="M184.4,52H0.7V0.3h183.7V52z M3.7,49.1h177.8V3.3H3.7V49.1z"/>
		</g>
	</g>
</g>
</svg>
