<?xml version="1.0" encoding="utf-8"?>
<!-- Generator: Adobe Illustrator 21.0.2, SVG Export Plug-In . SVG Version: 6.00 Build 0)  -->
<svg version="1.1"
	 id="svg6108" xmlns:cc="http://creativecommons.org/ns#" xmlns:dc="http://purl.org/dc/elements/1.1/" xmlns:rdf="http://www.w3.org/1999/02/22-rdf-syntax-ns#" xmlns:svg="http://www.w3.org/2000/svg"
	 xmlns="http://www.w3.org/2000/svg" xmlns:xlink="http://www.w3.org/1999/xlink" x="0px" y="0px" viewBox="0 0 215 95"
	 style="enable-background:new 0 0 215 95;" xml:space="preserve">
<style type="text/css">
	.st0{fill:none;}
	.st1{fill:#5E8B3E;}
</style>
<rect x="104" y="44.6" class="st0" width="7" height="5.7"/>
<path class="st0" d="M106.5,46c0.6,1.2,1,2,1.6,3.2c0.1-0.1,0.3-0.2,0.4-0.2c-0.5-1-1-2.1-1.6-3.2C106.8,45.9,106.6,45.9,106.5,46"
	/>
<path class="st0" d="M105,51.7C105,51.7,105,51.7,105,51.7C105,51.7,105,51.7,105,51.7c0-0.1,0.1-0.1,0.1-0.2
	C105.1,51.6,105,51.7,105,51.7 M105.1,51.5C105.1,51.5,105.1,51.5,105.1,51.5C105.1,51.5,105.1,51.5,105.1,51.5 M105.1,51.5
	C105.1,51.4,105.1,51.4,105.1,51.5C105.1,51.4,105.1,51.4,105.1,51.5 M106.1,49.6c-0.3,0.6-0.6,1.2-0.8,1.6c0.5-0.9,0.9-1.7,1.3-2.6
	l0,0C106.4,48.9,106.2,49.2,106.1,49.6 M104.8,43.3c-0.2,0.3-0.6,1.2-1,1.9c-0.3,0.6-0.6,1.2-0.8,1.8l0,0.1c0,0.1-0.1,0.2-0.1,0.3
	c0,0.1,0,0.2,0.1,0.3l0,0c0,0.1,0.4,1,0.9,1.9c0.2,0.4,0.5,1.1,1,2l0,0l0,0.1v0l0,0l0,0c-0.5-0.9-0.8-1.6-1-2
	c-0.4-0.9-0.8-1.8-0.9-1.9l0,0c0-0.1-0.1-0.2-0.1-0.3c0-0.1,0-0.2,0.1-0.3l0-0.1c0.3-0.6,0.6-1.2,0.8-1.8
	C104.2,44.4,104.6,43.6,104.8,43.3C104.8,43.3,104.8,43.3,104.8,43.3 M110.3,43.5c0.7,1.3,1.5,2.9,1.8,3.4c0.1,0.2,0.1,0.4,0.1,0.5
	c0,0.1,0,0.2-0.1,0.5c-0.1,0.2-1,1.9-1.8,3.4c-0.1,0.2-0.2,0.3-0.3,0.5v0c0.1-0.2,0.2-0.4,0.3-0.5c0.8-1.5,1.7-3.2,1.8-3.4
	c0.1-0.3,0.1-0.4,0.1-0.5c0-0.1,0-0.3-0.1-0.5C111.8,46.3,111,44.7,110.3,43.5c-0.1-0.1-0.1-0.2-0.2-0.3l0,0
	C110.1,43.3,110.2,43.4,110.3,43.5"/>
<path class="st0" d="M107,48.5c0,0.1-0.1,0.2-0.1,0.2c0,0.1-0.1,0.2-0.1,0.2c0,0,0,0.1,0,0.1c0,0,0,0,0,0c0,0,0,0,0,0
	c0,0,0-0.1,0.1-0.1c0.6-1.1,1-2,1.5-3.1c0,0,0,0,0,0C107.9,46.9,107.5,47.6,107,48.5"/>
<path class="st0" d="M107.5,43.4c-0.7,1.3-1.1,2.2-1.8,3.7c-0.1,0.1-0.1,0.2-0.1,0.4c0,0.1,0,0.2,0.1,0.4c0.7,1.5,1.2,2.5,1.9,3.9
	c0.1,0,0.1,0.1,0.2,0.1c0,0,0,0,0,0c0,0,0,0,0-0.1c0,0,0-0.1,0.1-0.2c0-0.1,0.1-0.1,0.1-0.2c0.2-0.4,0.5-1,0.8-1.6
	c0.2-0.4,0.3-0.7,0.5-1c0,0,0,0-0.1-0.1c-0.1,0.3-0.3,0.7-0.5,1v0c0,0,0,0,0,0c-0.4,0.9-0.9,1.7-1,2.1l0,0l0,0.1l0,0v0l0-0.1l0,0
	c-0.5-0.9-0.8-1.6-1-2c-0.4-0.9-0.8-1.8-0.9-1.9l0,0c-0.1-0.1-0.1-0.2-0.1-0.3c0-0.1,0-0.2,0.1-0.3l0-0.1c0.3-0.6,0.6-1.2,0.8-1.8
	c0.4-0.8,0.8-1.6,1-1.9C107.6,43.3,107.5,43.3,107.5,43.4"/>
<path class="st0" d="M107,48.6c0.3-0.6,0.7-1.3,1.1-2.1C107.5,47,107.2,47.8,107,48.6"/>
<path class="st0" d="M107.6,46.3c-0.4,0.8-0.8,1.5-1.1,2.1c-0.1,0.3-0.1,0.7-0.1,1h0.2l0,0c0-0.1,0-0.2,0.1-0.4
	c0.6-1.5,1.1-2.4,1.8-3.7C108.2,45.7,107.9,46,107.6,46.3"/>
<path class="st0" d="M106.9,46.6c0.3,0.6,0.6,1.2,0.9,1.9c0.1,0.1,0.2,0.2,0.3,0.3c-0.5-0.9-0.9-1.7-1.3-2.6
	C106.9,46.3,106.9,46.5,106.9,46.6"/>
<path class="st0" d="M108,48.4c-0.3-0.6-0.6-1.2-0.9-1.9C107.2,47.3,107.5,47.9,108,48.4"/>
<polygon class="st0" points="107.4,47.5 107.6,47.5 107.6,47.5 "/>
<path class="st0" d="M106.4,45.5c0,0.3,0,0.6,0.1,0.9c0.4,0.9,0.8,1.7,1.3,2.6c0.3,0.3,0.5,0.5,0.9,0.7c-0.7-1.4-1.2-2.4-1.9-3.9
	c-0.1-0.1-0.1-0.2-0.1-0.4L106.4,45.5C106.4,45.4,106.4,45.4,106.4,45.5"/>
<path class="st0" d="M106.6,48.9C106.5,48.9,106.5,49,106.6,48.9c0.1,0.2,0.2,0.2,0.3,0.3c0.6-1.1,1.2-2.2,1.6-3.1
	c-0.1-0.1-0.3-0.1-0.4-0.2C107.6,46.9,107.2,47.8,106.6,48.9"/>
<path class="st0" d="M106.6,46c0.7,1.3,1.5,2.8,1.8,3.4c0.1,0.1,0.1,0.2,0.1,0.3l0.3,0c0-0.1,0-0.3-0.1-0.5
	c-0.3-0.5-1.1-2.2-1.8-3.4c-0.1-0.1-0.1-0.2-0.2-0.3c-0.1-0.1-0.2-0.1-0.3-0.2c0,0,0,0,0,0c0,0,0,0,0,0c0,0,0,0,0,0c0,0,0,0,0,0
	c-0.1,0-0.1-0.1-0.2-0.1C106.3,45.5,106.5,45.8,106.6,46"/>
<path class="st0" d="M108.5,45.3c0,0.1,0,0.1-0.1,0.2c-0.3,0.7-1,2.1-1.8,3.4c-0.2,0.3-0.4,0.6-0.5,1c0,0,0,0,0,0c0,0,0,0,0,0
	c0,0,0,0,0,0c0,0,0,0,0,0c0,0,0,0,0,0c0,0,0,0,0,0l0,0c0.1-0.1,0.3-0.1,0.4-0.2c0.1-0.2,0.2-0.4,0.3-0.5c0.8-1.5,1.7-3.2,1.8-3.4
	c0.1-0.3,0.1-0.4,0.1-0.5l-0.3,0C108.5,45.2,108.5,45.2,108.5,45.3"/>
<path class="st0" d="M107.3,48.6L107.3,48.6c0.1-0.2,0.1-0.3,0.2-0.5C107.4,48.3,107.3,48.5,107.3,48.6 M107.7,47.7
	c0-0.1,0-0.1,0.1-0.2c0,0,0-0.1,0-0.1C107.7,47.6,107.7,47.7,107.7,47.7 M107.7,47.5L107.7,47.5L107.7,47.5 M107.7,47.5L107.7,47.5
	L107.7,47.5z M107.3,46.4c0.2,0.4,0.3,0.7,0.3,0.7c0.1,0.1,0.1,0.2,0.1,0.4c0-0.1,0-0.2-0.1-0.4C107.5,46.8,107.4,46.6,107.3,46.4
	L107.3,46.4z"/>
<path class="st0" d="M107.3,46.9c0.1,0.2,0.2,0.5,0.3,0.7c0.1,0.1,0.1,0.2,0.1,0.4v0v0c0,0,0,0,0,0v0v0l0,0v0c0,0,0,0.1,0,0.1h0
	c0,0,0-0.1,0-0.1c0-0.1,0-0.2-0.1-0.4C107.5,47.4,107.4,47.1,107.3,46.9C107.3,46.9,107.3,46.9,107.3,46.9"/>
<path class="st0" d="M107.7,47c0,0.1,0,0.1-0.1,0.2c0,0,0,0,0,0.1c0,0-0.1,0.2-0.2,0.4c-0.1,0.2-0.1,0.3-0.2,0.5c0,0,0,0,0,0
	c0.1-0.3,0.2-0.5,0.4-0.8C107.7,47.1,107.7,47,107.7,47L107.7,47L107.7,47z"/>
<path class="st0" d="M107.3,46.4c0.2,0.3,0.3,0.6,0.3,0.7l0,0v0c0,0,0,0,0,0l0,0c0,0,0,0,0,0v0c0.1,0.1,0.1,0.2,0.1,0.3
	c0,0.1,0,0.2-0.1,0.3l0,0c0,0-0.1,0.1-0.1,0.3c-0.1,0.1-0.1,0.3-0.2,0.5c0,0,0,0,0.1,0.1c0.1-0.2,0.2-0.3,0.2-0.5
	c0.1-0.2,0.2-0.3,0.2-0.4c0,0,0,0,0-0.1c0-0.1,0.1-0.2,0.1-0.2v0l0,0v0v0c0,0,0,0,0,0v0v0c0-0.1,0-0.2-0.1-0.4
	C107.7,47.1,107.5,46.8,107.3,46.4C107.3,46.4,107.3,46.4,107.3,46.4"/>
<path class="st0" d="M106.5,46.8c0.1,0.3,0.3,0.5,0.4,0.8c0.1,0.3,0.2,0.4,0.2,0.5c0,0,0,0.1,0,0.1h0.3c0.1,0,0.3,0,0.6,0
	c0.1,0,0.2,0,0.3,0h0.3c0,0,0,0,0,0c0-0.8-0.7-1.5-1.5-1.5C106.8,46.7,106.6,46.8,106.5,46.8"/>
<path class="st0" d="M107.6,46.8c0,0.1-0.1,0.2-0.2,0.4c-0.1,0.3-0.3,0.6-0.4,0.9c0,0,0.1,0,0.1,0c0.1-0.2,0.3-0.5,0.4-0.8
	c0.2-0.4,0.2-0.5,0.5-0.6L107.6,46.8L107.6,46.8z"/>
<path class="st0" d="M107.3,46.8c-0.2,0.1-0.3,0.2-0.5,0.6c-0.1,0.3-0.3,0.5-0.4,0.8c0.2,0.1,0.3,0.1,0.5,0.1c0.8,0,1.5-0.7,1.5-1.5
	h-0.3c-0.1,0-0.2,0-0.3,0C107.6,46.8,107.5,46.8,107.3,46.8"/>
<path class="st0" d="M107,47.1c0.1,0.2,0.2,0.5,0.3,0.7c0.1,0.1,0.1,0.2,0.1,0.4h0.5c0-0.1-0.1-0.3-0.2-0.5
	c-0.1-0.3-0.3-0.5-0.4-0.8C107.3,46.9,107.1,47,107,47.1"/>
<path class="st0" d="M107.5,46.8c0,0,0,0.1,0,0.1c0,0.1,0,0.1-0.1,0.2c-0.1,0.3-0.3,0.6-0.4,0.8c0.1,0.1,0.2,0.2,0.4,0.2
	c0.2-0.3,0.3-0.6,0.4-0.9c0.1-0.2,0.1-0.3,0.2-0.4c0,0,0-0.1,0-0.1L107.5,46.8L107.5,46.8z"/>
<g id="layer1" transform="translate(-47.103557,-336.7492)">
	<g id="g463" transform="translate(-21.016443,106.0232)">
		<path id="path465" d="M74,268.2c-0.4,0.5-0.5,1.1-0.5,3.8v9.6c0,1.3,0,2.2,0.3,2.7c0.2,0.3,0.5,0.6,1.4,0.8v0.6
			c-1-0.1-2.7-0.1-3.6-0.1c-0.9,0-2.6,0-3.5,0.1V285c0.3-0.1,0.9-0.3,1.3-0.7c0.4-0.5,0.5-1.1,0.5-3.8V271c0-1.4,0-2.2-0.3-2.7
			c-0.2-0.4-0.5-0.6-1.4-0.8V267c1,0.1,2.7,0.1,3.6,0.1c0.9,0,2.5,0,3.5-0.1v0.6C75,267.6,74.3,267.8,74,268.2"/>
		<path id="path467" class="st1" d="M268.3,264.5c1.9,2.7,4.5,5.1,7.4,5.1c2.2,0,3.5-1.3,4.9-1.3c0.8,0,1.4,0.2,1.7,0.4
			c0.4,0.3,0.6,0.7,0.7,1.2c0.1,0.6,0,1.1-0.2,1.7c-1.9,5.7-4.3,12.7-4.3,12.7l-1.9,0c-0.7,2.1-2,3-3.5,3s-2.4-0.6-3.3-1.6
			c-1.5-1.7-3-4.6-3.6-7.9c-0.4-2.5-0.3-5.7,0.9-8.4c0.4,0.3,1.2,0.9,1.2,0.9c-0.8,2.5-0.7,5.3-0.3,7.3c0.5,2.5,1.5,4.3,2.8,5.6
			c0.7,0.8,1.4,1.1,1.9,1.1c2.2-3.4,7.3-11.1,7.8-11.9c0.5-0.8,1-1.6,0.6-2c-0.3-0.4-1-0.2-1.5,0.2c-1.1,0.7-2.4,1.6-4.7,1.5
			c-2.9-0.1-5.5-1.6-8.5-3.9C266.8,266.8,267.5,265.6,268.3,264.5"/>
		<polygon id="polygon469" class="st1" points="269,270.6 273.4,281.3 270.4,271.4 		"/>
		<polygon id="polygon471" class="st1" points="271.9,272.1 275.1,279 273.2,272.4 		"/>
		<polygon id="polygon473" class="st1" points="274.6,272.6 276.6,276.9 275.6,272.7 		"/>
		<polygon id="polygon475" class="st1" points="276.9,272.5 278.1,274.8 277.8,272.2 		"/>
		<polygon id="polygon477" class="st1" points="278.9,271.6 279.5,272.8 279.5,271.2 		"/>
		<path id="path479" d="M79.8,272.6L79.8,272.6c-1.2,0.2-2.5,0.3-3.3,0.3v0.5c1.7,0.3,1.8,1,1.8,3.2v2.8c0,0,0,1,0,1.2
			c0,1.9,0,3.1-0.4,3.6c-0.3,0.4-0.6,0.6-1.4,0.8v0.4c1.1,0,2.9-0.1,3.5-0.1c1,0,3.1,0,3.9,0.1V285c0,0-0.1,0-0.1,0
			c-0.5-0.1-1.4-0.3-1.7-0.9c-0.2-0.4-0.4-0.8-0.4-2.7v-6.8l0.3-0.2c0.3-0.2,0.8-0.5,1.7-0.5h0.2l-0.1,0.1c-0.1,0.2-0.2,0.4-0.2,0.8
			c0,1.3,0.8,1.5,1.5,1.5c1,0,1.7-0.8,1.7-2c0-1-0.6-2.2-2.2-2.2c-1.2,0-2.2,0.6-2.9,1.9l-0.1,0.2c0,0,0.1-2,0.1-2.1
			c0,0-0.2-0.1-0.2-0.2C81,272.3,80.2,272.5,79.8,272.6"/>
		<path id="path481" d="M89,268c0,1,0.6,2,1.9,2c1.4,0,1.9-1.1,1.9-2c0-0.9-0.5-2-1.9-2C89.5,265.9,89,267,89,268 M90.8,272.6
			c-1.2,0.2-2.5,0.3-3.3,0.3v0.5c1.7,0.3,1.8,1,1.8,3.2c0,0.1,0,2.8,0,2.8s0,1,0,1.2c0,1.9,0,3.1-0.4,3.6c-0.3,0.4-0.6,0.6-1.4,0.8
			v0.4c1.1-0.1,2.9-0.1,3.4-0.1c1.1,0,2.9,0,3.7,0.1V285c-0.5-0.1-1.3-0.3-1.7-0.9c-0.2-0.4-0.3-0.8-0.3-2.7v-1l0-0.2
			c0-0.6,0-1.2,0-1.8c0-2.8,0-4.9,0.1-6.1c0,0-0.2-0.1-0.2-0.2C92.2,272.3,91.2,272.5,90.8,272.6"/>
		<path id="path483" d="M97.2,273.2L97.2,273.2c-0.9,0.7-1.4,1.7-1.4,2.9c0,1.7,0.5,2.7,2,3.6l1.8,1.1c0.8,0.5,1.4,1,1.4,2
			c0,1.5-1.2,1.8-2.2,1.8c-1.4,0-2.1-1-2.7-2.7h-0.5c0,0.1,0,0.3,0,0.3c0.1,0.6,0.1,1.1,0.1,2.1v0.7c0.9,0.4,2.2,0.5,3.3,0.5
			c4.5,0,4.8-3,4.8-4c0-2.3-1.5-3.2-2.1-3.6L100,277c-0.8-0.5-1.5-1-1.5-2c0-0.5,0.2-0.9,0.4-1.2c0.5-0.5,1.4-0.5,1.7-0.5
			c1.2,0,1.7,0.8,2.3,2.4h0.5c0-0.1,0-0.8,0-0.8l0-0.8c0-0.1,0-0.2,0-0.3c0-0.5,0-1.2,0.1-1.4c0,0-0.1,0-0.1-0.1
			c-0.2,0.1-0.3,0.1-0.5,0.1c-0.3,0-0.6,0-0.9-0.1c-0.4-0.1-0.8-0.1-1.5-0.1C99,272.3,98,272.6,97.2,273.2"/>
		<path id="path485" d="M107.6,266L107.6,266c-0.9,0.1-2.6,0.2-3.4,0.2v0.5c0.6,0.1,1,0.3,1.5,0.9c0.3,0.4,0.4,1.5,0.4,2.9
			c0,0.2,0,0.4,0,0.7l0,0.7v7.6c0,0,0,1,0,1.2c0,1.9,0,3.1-0.4,3.7c-0.3,0.4-0.6,0.6-1.4,0.8v0.4c1.1-0.1,2.8-0.1,3.4-0.1
			c1.1,0,2.3,0,3.2,0.1V285c-0.5-0.1-0.9-0.4-1.1-0.9c0,0,0,0,0,0c-0.1-0.3-0.3-0.6-0.3-2.9v-6.7l0,0c0.5-0.3,1.2-0.4,1.7-0.4
			c2.1,0,2.2,1.7,2.3,2.5c0,0.4,0.1,1.7,0.1,2.4l0,1.6l0,1l0,0.3c0,1,0,2.2-0.5,2.7l-0.1,0.1c-0.1,0.2-0.3,0.3-0.7,0.4v0.4
			c0.9-0.1,2.7-0.1,3.2-0.1c1,0,2.6,0,3.4,0.1V285c-0.5-0.1-1.3-0.3-1.6-0.9c-0.2-0.4-0.3-0.8-0.3-2.7v-3.8c0-0.9,0-2.1-0.4-3.1
			c-0.5-1.4-1.7-2.2-3.4-2.2c-1.4,0-2.5,0.6-3.5,1.7l-0.1,0.1v-0.6c0-4.9,0.1-7.2,0.2-7.9c0,0-0.2-0.1-0.2-0.1
			C108.9,265.8,108.3,265.9,107.6,266"/>
		<path id="path487" d="M124.2,267.5c0.8,0.2,1.1,0.4,1.4,0.8c0.3,0.5,0.3,1.4,0.3,2.7v9.5c0,2.7-0.1,3.3-0.5,3.8
			c-0.4,0.4-1,0.6-1.3,0.7v0.4c1-0.1,2.6-0.1,3.5-0.1c0.9,0,2.5,0,3.5,0.1V285c-0.8-0.2-1.1-0.4-1.4-0.8c-0.3-0.4-0.3-1.2-0.3-2.3
			c0-0.1,0-10,0-10c0-2.7,0.1-3.3,0.5-3.8c0.3-0.4,0.9-0.6,1.2-0.7V267c-1,0.1-2.6,0.1-3.4,0.1c-0.9,0-2.6,0-3.5-0.1L124.2,267.5
			L124.2,267.5z"/>
		<path id="path489" d="M135.8,272.6L135.8,272.6c-1.1,0.2-2.5,0.3-3.3,0.3v0.5c1.7,0.3,1.8,1,1.8,3.2c0,0.1,0,2.8,0,2.8s0,1,0,1.2
			c0,1.9,0,3.1-0.4,3.6c-0.3,0.4-0.6,0.6-1.4,0.8v0.4c1.1-0.1,2.8-0.1,3.3-0.1c1.1,0,2.3,0,3.2,0.1V285c-0.5-0.1-0.9-0.4-1.1-0.9
			c0,0,0-0.1,0-0.1c-0.1-0.3-0.3-0.6-0.3-2.9v-6.7l0,0c0.5-0.3,1.2-0.4,1.7-0.4c2.1,0,2.2,1.6,2.3,2.5c0,0.4,0.1,1.7,0.1,2.4l0,1.6
			l0,1l0,0.3c0,1,0,2.2-0.5,2.7l-0.1,0.1c-0.1,0.2-0.3,0.3-0.7,0.4v0.4c0.9-0.1,2.7-0.1,3.3-0.1c0.9,0,2.6,0,3.3,0.1V285
			c-0.5-0.1-1.3-0.3-1.6-0.9c-0.2-0.4-0.3-0.8-0.3-2.7v-3.8c0-0.9,0-2.1-0.4-3.1c-0.6-1.4-1.7-2.2-3.4-2.2c-1.4,0-2.6,0.6-3.6,1.7
			l-0.1,0.1c0,0,0.1-1.7,0.1-1.8c0,0-0.2-0.1-0.2-0.2C137,272.3,136.2,272.5,135.8,272.6"/>
		<path id="path491" d="M157,266L157,266c-0.9,0.1-2.6,0.2-3.5,0.2v0.5c0.6,0.1,1,0.3,1.5,0.9c0.3,0.4,0.4,1.5,0.4,2.9
			c0,0.2,0,0.4,0,0.7l0,0.7v1.8l-0.1-0.1c-0.6-0.8-1.7-1.2-2.9-1.2c-3.4,0-5.5,2.7-5.5,7c0,4,1.9,6.4,5,6.4c1.5,0,2.6-0.6,3.5-1.7
			l0.1-0.1l0,0.2c0.3,1.5,1.3,1.6,2,1.6c1.6,0,2.5-1,3-1.5c0,0,0,0,0,0c0-0.1-0.1-0.3-0.1-0.4c-0.8,0-1.2-0.1-1.4-0.3
			c-0.4-0.4-0.4-0.9-0.4-1.9v-6.6c0-3.8,0-7.6,0.2-9.2c0,0-0.2-0.1-0.2-0.1C158.3,265.8,157.7,265.9,157,266 M150.5,279.2
			L150.5,279.2c0-2.3,0.4-3.8,1.3-4.7c0.5-0.5,1.2-0.8,2-0.8c0.5,0,1,0,1.6,0.3l0,0v9.6l0,0c-0.4,0.3-1,0.5-1.7,0.5
			C151.6,284.1,150.5,282.4,150.5,279.2"/>
		<path id="path493" d="M161.4,279.2c0,5.6,3.6,6.4,5.8,6.4c2.8,0,4-1.4,4.5-1.9c0-0.1-0.2-0.3-0.2-0.4c-0.3,0.2-1.2,0.5-2.4,0.5
			c-3.8,0-4.2-3.2-4.2-5.7V278h7.2v-0.1c0-1.5-0.3-2.7-0.8-3.6c-0.5-0.7-1.6-2-3.8-2C162.9,272.3,161.4,276,161.4,279.2
			 M164.8,277.3c0-1.8,0.2-4.1,2.1-4.1c1.6,0,1.7,1.7,1.7,3.3v0.3L164.8,277.3L164.8,277.3L164.8,277.3z"/>
		<path id="path495" d="M175.4,272.6L175.4,272.6c-1.2,0.2-2.5,0.3-3.2,0.3v0.5c1.7,0.3,1.8,1,1.8,3.2c0,0.1,0,9.2,0,9.2s0,1,0,1.2
			c0,1.9,0,3.1-0.4,3.6c-0.3,0.4-0.6,0.6-1.4,0.8v0.4c1.1-0.1,3.2-0.1,3.7-0.1c1.1,0,2.9,0,3.7,0.1v-0.4c-0.1,0-0.1,0-0.1,0
			c-0.6-0.1-1.4-0.3-1.7-0.9c-0.2-0.4-0.4-0.9-0.4-2.7v-3.3l0.1,0.1c0.7,0.9,1.6,1.2,2.9,1.2c3.4,0,5.5-2.7,5.5-7
			c0-3.1-1.3-6.4-5-6.4c-1.3,0-2.5,0.6-3.5,1.7l-0.1,0.1c0,0,0.1-1.7,0.1-1.8c0,0-0.2-0.1-0.2-0.2
			C176.7,272.3,175.8,272.5,175.4,272.6 M177.3,284.1L177.3,284.1l0-9.6l0,0c0.4-0.3,1-0.5,1.7-0.5c2.1,0,3.2,1.7,3.2,4.9l0,0.1
			c0,2.2-0.4,3.7-1.3,4.6c-0.5,0.5-1.2,0.8-2.1,0.8C178.4,284.4,177.9,284.4,177.3,284.1"/>
		<path id="path497" d="M187.3,279.2c0,5.6,3.6,6.4,5.8,6.4c2.8,0,4-1.4,4.5-1.9c0-0.1-0.2-0.3-0.2-0.4c-0.3,0.2-1.2,0.5-2.4,0.5
			c-3.8,0-4.2-3.2-4.2-5.7V278h7.2v-0.1c0-1.5-0.3-2.7-0.8-3.6c-0.5-0.7-1.6-2-3.8-2C188.8,272.3,187.3,276,187.3,279.2
			 M190.7,277.3c0-1.8,0.2-4.1,2.1-4.1c1.6,0,1.7,1.7,1.7,3.3v0.3L190.7,277.3L190.7,277.3L190.7,277.3z"/>
		<path id="path499" d="M202,272.6L202,272.6c-1.2,0.2-2.5,0.3-3.3,0.3v0.5c1.7,0.3,1.8,1,1.8,3.2v2.8c0,0,0,1,0,1.2
			c0,1.9,0,3.1-0.5,3.6c-0.3,0.4-0.6,0.6-1.4,0.8v0.4c1.1-0.1,2.8-0.1,3.3-0.1c1.1,0,2.3,0,3.2,0.1V285c-0.5-0.1-0.9-0.4-1.1-0.9
			c0,0,0,0,0,0c-0.1-0.3-0.3-0.6-0.3-2.9v-6.7l0,0c0.5-0.3,1.2-0.4,1.7-0.4c2.1,0,2.2,1.6,2.3,2.5c0,0.4,0.1,1.7,0.1,2.4l0,1.6l0,1
			l0,0.3c0,1,0,2.2-0.5,2.7l-0.1,0.1c-0.1,0.2-0.3,0.3-0.7,0.4v0.4c0.9-0.1,2.7-0.1,3.3-0.1c0.9,0,2.6,0,3.3,0.1V285
			c-0.5-0.1-1.3-0.3-1.6-0.9c-0.2-0.4-0.3-0.8-0.3-2.7v-3.8c0-0.9,0-2.1-0.4-3.1c-0.6-1.4-1.7-2.2-3.4-2.2c-1.4,0-2.6,0.6-3.6,1.7
			l-0.1,0.1c0,0,0.1-1.7,0.1-1.8c0,0-0.2-0.1-0.2-0.2C203.3,272.3,202.4,272.5,202,272.6"/>
		<path id="path501" d="M223.5,266c-0.9,0.1-2.6,0.2-3.5,0.2v0.5c0.6,0.1,1,0.3,1.5,0.9c0.3,0.4,0.4,1.5,0.4,2.9c0,0.2,0,0.4,0,0.7
			l0,0.7v1.8l-0.1-0.1c-0.6-0.8-1.7-1.2-2.9-1.2c-3.4,0-5.5,2.7-5.5,7c0,4,1.9,6.4,5,6.4c1.5,0,2.6-0.6,3.5-1.7l0.1-0.1l0,0.2
			c0.3,1.5,1.3,1.6,2,1.6c1.6,0,2.5-1,3-1.5c0,0,0,0,0,0c0-0.1-0.1-0.3-0.1-0.4c-0.8,0-1.2-0.1-1.4-0.3c-0.4-0.4-0.4-0.9-0.4-1.9
			v-6.6c0-3.8,0-7.6,0.2-9.2c0,0-0.2-0.1-0.2-0.1C224.7,265.8,224.2,265.9,223.5,266 M216.9,279.2L216.9,279.2
			c0-2.3,0.4-3.8,1.3-4.7c0.5-0.5,1.2-0.8,2-0.8c0.5,0,1,0,1.6,0.3l0,0v9.6l0,0c-0.4,0.3-1,0.5-1.7,0.5
			C218,284.1,216.9,282.4,216.9,279.2"/>
		<path id="path503" d="M227.6,279.2c0,5.6,3.6,6.4,5.8,6.4c2.8,0,4-1.4,4.5-1.9c0-0.1-0.2-0.3-0.2-0.4c-0.3,0.2-1.2,0.5-2.4,0.5
			c-3.8,0-4.2-3.2-4.2-5.7V278h7.2v-0.1c0-1.5-0.3-2.7-0.8-3.6c-0.5-0.7-1.6-2-3.8-2C229.1,272.3,227.6,276,227.6,279.2 M231,277.3
			c0-1.8,0.2-4.1,2.1-4.1c1.6,0,1.7,1.7,1.7,3.3v0.3L231,277.3L231,277.3L231,277.3z"/>
		<path id="path505" d="M242.3,272.6L242.3,272.6c-1.2,0.2-2.5,0.3-3.3,0.3v0.5c1.7,0.3,1.8,1,1.8,3.2v2.8c0,0,0,1,0,1.2
			c0,1.9,0,3.1-0.4,3.6c-0.3,0.4-0.6,0.6-1.4,0.8v0.4c1.1-0.1,2.8-0.1,3.3-0.1c1.1,0,2.3,0,3.2,0.1V285c-0.5-0.1-0.9-0.4-1.1-0.9
			c0,0,0,0,0,0c-0.1-0.3-0.3-0.6-0.3-2.9v-6.7l0,0c0.5-0.3,1.2-0.4,1.7-0.4c2.1,0,2.2,1.6,2.3,2.5c0,0.4,0.1,1.7,0.1,2.4l0,1.6l0,1
			l0,0.3c0,1,0,2.2-0.5,2.7l-0.1,0.1c-0.1,0.2-0.3,0.3-0.7,0.4v0.4c0.9-0.1,2.7-0.1,3.3-0.1c0.9,0,2.6,0,3.3,0.1V285
			c-0.5-0.1-1.3-0.3-1.6-0.9c-0.2-0.4-0.3-0.8-0.3-2.7v-3.8c0-0.9,0-2.1-0.4-3.1c-0.6-1.4-1.7-2.2-3.4-2.2c-1.4,0-2.6,0.6-3.6,1.7
			l-0.1,0.1c0,0,0.1-1.7,0.1-1.8c0,0-0.2-0.1-0.2-0.2C243.6,272.3,242.7,272.5,242.3,272.6"/>
		<path id="path507" d="M74,268.2c-0.4,0.5-0.5,1.1-0.5,3.8v9.6c0,1.3,0,2.2,0.3,2.7c0.2,0.3,0.5,0.6,1.4,0.8v0.6
			c-1-0.1-2.7-0.1-3.6-0.1c-0.9,0-2.6,0-3.5,0.1V285c0.3-0.1,0.9-0.3,1.3-0.7c0.4-0.5,0.5-1.1,0.5-3.8V271c0-1.4,0-2.2-0.3-2.7
			c-0.2-0.4-0.5-0.6-1.4-0.8V267c1,0.1,2.7,0.1,3.6,0.1c0.9,0,2.5,0,3.5-0.1v0.6C75,267.6,74.3,267.8,74,268.2"/>
		<path id="path509" d="M85.1,276.5c-0.9,0-1.6-0.5-1.6-1.6c0-0.4,0.1-0.7,0.2-0.8h-0.1c-1.1,0-1.5,0.4-1.9,0.6v6.7
			c0,1.8,0.1,2.2,0.4,2.6c0.3,0.6,1.3,0.8,1.8,0.9v0.6c-0.7-0.1-2.9-0.1-3.9-0.1c-0.5,0-2.5,0-3.6,0.1V285c0.8-0.1,1.1-0.4,1.4-0.8
			c0.5-0.6,0.4-2.3,0.4-4.8v-2.3c0-2.7,0.1-3.4-1.8-3.7v-0.6c0.6,0,2.1-0.1,3.4-0.3c0.4-0.1,1.3-0.2,1.6-0.4l0.3,0.2l-0.1,1.8
			c0.6-0.9,1.5-1.9,3-1.9c1.6,0,2.2,1.2,2.2,2.2C86.8,275.8,86,276.5,85.1,276.5"/>
		<path id="path511" d="M90.9,285.4c-0.6,0-2.4,0-3.5,0.1V285c0.8-0.1,1.1-0.4,1.4-0.8c0.5-0.6,0.4-2.3,0.4-4.8v-2.3
			c0-2.7,0.1-3.4-1.8-3.7v-0.6c0.6,0,2.1-0.1,3.3-0.3c0.4-0.1,1.4-0.2,1.8-0.4l0.3,0.2c-0.2,2.4-0.1,7.8-0.1,8.1v1
			c0,1.9,0.1,2.2,0.3,2.6c0.4,0.6,1.1,0.8,1.7,0.9v0.6C93.9,285.5,92,285.4,90.9,285.4 M91,270c-1.3,0-2-1-2-2c0-1.1,0.7-2.1,2-2.1
			c1.3,0,2,1,2,2.1C93,269,92.3,270,91,270"/>
		<path id="path513" d="M99,285.7c-1.1,0-2.5-0.2-3.3-0.5v-0.7c0-1.3-0.1-1.7-0.1-2.5h0.7c0.7,1.9,1.3,2.7,2.7,2.7
			c0.9,0,2.1-0.3,2.1-1.8c0-1-0.5-1.4-1.3-1.9l-1.8-1.1c-1.6-1-2-2-2-3.6c0-1.1,0.5-2.2,1.4-2.9c0.9-0.7,1.9-0.9,3.2-0.9
			s1.6,0.2,2.4,0.2c0.2,0,0.4,0,0.5-0.2l0.2,0.1c0,0.2-0.1,1.3,0,1.7c0,0.8,0,1.2,0,1.6h-0.6c-0.6-1.7-1.1-2.4-2.2-2.4
			c-0.1,0-2-0.1-2,1.6c0,1,0.6,1.5,1.4,2l1.7,1.1c0.7,0.4,2.1,1.4,2.1,3.7C103.9,283.4,102.8,285.7,99,285.7"/>
		<path id="path515" d="M115.4,285.4c-0.6,0-2.5,0-3.3,0.1V285c0.5-0.1,0.6-0.3,0.8-0.5c0.5-0.6,0.5-2,0.5-2.9c0-0.7,0-1.5,0-2.6
			c0-0.7,0-2-0.1-2.4c-0.1-1-0.3-2.5-2.2-2.5c-0.6,0-1.3,0.1-1.7,0.4v6.7c0,2.5,0.1,2.6,0.3,2.9c0.2,0.5,0.6,0.8,1.1,0.8v0.6
			c-1-0.1-2.2-0.1-3.2-0.1c-0.6,0-2.4,0-3.4,0.1V285c0.8-0.1,1.1-0.4,1.4-0.8c0.5-0.6,0.4-2.3,0.4-4.8v-7.6c0-1.9,0.1-3.7-0.4-4.2
			c-0.4-0.6-0.9-0.7-1.5-0.8v-0.6c0.8,0,2.6-0.1,3.5-0.2c0.7-0.1,1.3-0.2,1.8-0.4l0.3,0.2c-0.1,0.5-0.2,2.9-0.2,7.9v0.4
			c1-1.2,2.2-1.7,3.6-1.7c2,0,3,1,3.5,2.2c0.4,1,0.4,2.3,0.4,3.1v3.8c0,1.9,0.1,2.2,0.3,2.6c0.4,0.6,1.1,0.8,1.6,0.9v0.6
			C118.1,285.5,116.4,285.4,115.4,285.4"/>
		<path id="path517" d="M130.2,268.2c-0.4,0.5-0.5,1.1-0.5,3.8v9.6c0,1.3,0,2.2,0.3,2.7c0.2,0.3,0.5,0.6,1.4,0.8v0.6
			c-1-0.1-2.7-0.1-3.6-0.1c-0.9,0-2.6,0-3.5,0.1V285c0.3-0.1,0.9-0.3,1.3-0.7c0.4-0.5,0.5-1.1,0.5-3.8V271c0-1.4,0-2.2-0.3-2.7
			c-0.2-0.4-0.5-0.6-1.4-0.8V267c1,0.1,2.7,0.1,3.6,0.1s2.6,0,3.5-0.1v0.6C131.2,267.6,130.5,267.8,130.2,268.2"/>
		<path id="path519" d="M143.6,285.4c-0.6,0-2.5,0-3.3,0.1V285c0.5-0.1,0.6-0.3,0.8-0.5c0.5-0.6,0.5-2,0.5-2.9c0-0.7,0-1.5,0-2.6
			c0-0.7,0-2-0.1-2.4c-0.1-1-0.2-2.5-2.2-2.5c-0.6,0-1.3,0.1-1.7,0.4v6.7c0,2.5,0.1,2.6,0.3,2.9c0.2,0.5,0.6,0.8,1.1,0.8v0.6
			c-1-0.1-2.2-0.1-3.2-0.1c-0.5,0-2.4,0-3.4,0.1V285c0.8-0.1,1.1-0.4,1.4-0.8c0.5-0.6,0.4-2.3,0.4-4.8v-2.3c0-2.7,0.1-3.4-1.8-3.7
			v-0.6c0.6,0,2.1-0.1,3.4-0.3c0.4-0.1,1.3-0.2,1.6-0.4l0.3,0.2l-0.1,1.6c1.1-1.2,2.3-1.7,3.7-1.7c2,0,3,1,3.4,2.2
			c0.4,1,0.4,2.3,0.4,3.1v3.8c0,1.9,0.1,2.2,0.3,2.6c0.4,0.6,1.1,0.8,1.6,0.9v0.6C146.3,285.5,144.6,285.4,143.6,285.4"/>
		<path id="path521" d="M157.6,285.7c-0.7,0-1.8-0.2-2.1-1.7c-0.9,1.2-2.1,1.8-3.6,1.8c-3.2,0-5.1-2.5-5.1-6.5
			c0-4.2,1.9-7.1,5.6-7.1c1.3,0,2.3,0.4,3,1.2v-1.6c0-1.9,0.1-3.7-0.4-4.2c-0.4-0.6-0.9-0.7-1.5-0.8v-0.6c0.8,0,2.6-0.1,3.5-0.2
			c0.7-0.1,1.3-0.2,1.7-0.4l0.3,0.2c-0.2,1.6-0.2,5.5-0.2,9.2v6.6c0,1.1,0,1.5,0.4,1.9c0.2,0.2,0.7,0.3,1.4,0.3l0.1,0.5
			C160.2,284.7,159.3,285.7,157.6,285.7 M155.4,274.1c-0.6-0.3-1.1-0.3-1.6-0.3c-3.4,0-3.3,4.6-3.3,5.4c0,3.2,1.1,4.8,3.2,4.8
			c0.3,0,1.1,0,1.7-0.5L155.4,274.1L155.4,274.1z"/>
		<path id="path523" d="M164.8,278.1v0.1c0,2.3,0.4,5.6,4.2,5.6c1.3,0,2.3-0.4,2.4-0.5l0.3,0.5c-0.5,0.6-1.8,1.9-4.5,1.9
			c-1.9,0-5.8-0.7-5.8-6.5c0-3,1.4-6.9,6-6.9c2.5,0,3.6,1.5,3.9,2c0.7,1.2,0.8,2.6,0.8,3.7v0.2H164.8L164.8,278.1z M168.5,276.5
			c0-1.8-0.2-3.2-1.7-3.2c-1.9,0-2,2.4-2,4l3.7-0.6L168.5,276.5L168.5,276.5z"/>
		<path id="path525" d="M180.3,285.8c-1.2,0-2.2-0.3-3-1.2v3.1c0,1.9,0.2,2.3,0.4,2.7c0.3,0.6,1.3,0.8,1.8,0.9v0.6
			c-0.7-0.1-2.7-0.1-3.8-0.1c-0.6,0-2.7,0-3.7,0.1v-0.6c0.8-0.2,1.1-0.4,1.4-0.8c0.5-0.6,0.4-2.2,0.4-4.8v-8.6
			c0-2.7,0.1-3.4-1.8-3.7v-0.6c0.6,0,2-0.1,3.3-0.3c0.4-0.1,1.4-0.2,1.7-0.4l0.3,0.2l-0.1,1.6c1.1-1.2,2.3-1.7,3.6-1.7
			c3.7,0,5,3.3,5,6.5C185.9,282.8,184,285.8,180.3,285.8 M179,274c-0.3,0-1.1,0-1.7,0.5v9.5c0.6,0.3,1.1,0.3,1.6,0.3
			c3.4,0,3.3-4.6,3.3-5.4C182.2,275.7,181.1,274,179,274"/>
		<path id="path527" d="M190.8,278.1v0.1c0,2.3,0.4,5.6,4.2,5.6c1.3,0,2.3-0.4,2.4-0.5l0.3,0.5c-0.5,0.6-1.8,1.9-4.5,1.9
			c-1.9,0-5.8-0.7-5.8-6.5c0-3,1.4-6.9,6-6.9c2.5,0,3.6,1.5,3.9,2c0.7,1.2,0.8,2.6,0.8,3.7v0.2H190.8L190.8,278.1z M194.5,276.5
			c0-1.8-0.2-3.2-1.7-3.2c-1.9,0-2,2.4-2,4l3.7-0.6V276.5z"/>
		<path id="path529" d="M209.8,285.4c-0.6,0-2.5,0-3.3,0.1V285c0.5-0.1,0.6-0.3,0.8-0.5c0.5-0.6,0.5-2,0.5-2.9c0-0.7,0-1.5,0-2.6
			c0-0.7,0-2-0.1-2.4c-0.1-1-0.2-2.5-2.2-2.5c-0.6,0-1.3,0.1-1.7,0.4v6.7c0,2.5,0.1,2.6,0.3,2.9c0.2,0.5,0.6,0.8,1.1,0.8v0.6
			c-1-0.1-2.2-0.1-3.2-0.1c-0.5,0-2.4,0-3.4,0.1V285c0.8-0.1,1.1-0.4,1.4-0.8c0.5-0.6,0.4-2.3,0.4-4.8v-2.3c0-2.7,0.1-3.4-1.8-3.7
			v-0.6c0.6,0,2.1-0.1,3.4-0.3c0.4-0.1,1.3-0.2,1.6-0.4l0.3,0.2l-0.1,1.6c1.1-1.2,2.3-1.7,3.7-1.7c2,0,3,1,3.4,2.2
			c0.4,1,0.4,2.3,0.4,3.1v3.8c0,1.9,0.1,2.2,0.3,2.6c0.4,0.6,1.1,0.8,1.6,0.9v0.6C212.5,285.5,210.9,285.4,209.8,285.4"/>
		<path id="path531" d="M224,285.7c-0.7,0-1.8-0.2-2.1-1.7c-0.9,1.2-2.1,1.8-3.6,1.8c-3.2,0-5.1-2.5-5.1-6.5c0-4.2,1.9-7.1,5.6-7.1
			c1.3,0,2.3,0.4,3,1.2v-1.6c0-1.9,0.1-3.7-0.4-4.2c-0.4-0.6-0.9-0.7-1.5-0.8v-0.6c0.8,0,2.6-0.1,3.5-0.2c0.7-0.1,1.3-0.2,1.7-0.4
			l0.3,0.2c-0.2,1.6-0.2,5.5-0.2,9.2v6.6c0,1.1,0,1.5,0.4,1.9c0.2,0.2,0.7,0.3,1.4,0.3l0.1,0.5C226.7,284.7,225.7,285.7,224,285.7
			 M221.8,274.1c-0.6-0.3-1.1-0.3-1.6-0.3c-3.4,0-3.3,4.6-3.3,5.4c0,3.2,1.1,4.8,3.2,4.8c0.3,0,1.1,0,1.7-0.5L221.8,274.1
			L221.8,274.1z"/>
		<path id="path533" d="M231,278.1v0.1c0,2.3,0.4,5.6,4.2,5.6c1.3,0,2.3-0.4,2.4-0.5l0.3,0.5c-0.5,0.6-1.8,1.9-4.5,1.9
			c-1.9,0-5.8-0.7-5.8-6.5c0-3,1.4-6.9,6-6.9c2.5,0,3.6,1.5,3.9,2c0.7,1.2,0.8,2.6,0.8,3.7v0.2H231L231,278.1z M234.8,276.5
			c0-1.8-0.2-3.2-1.7-3.2c-1.9,0-2,2.4-2,4l3.7-0.6V276.5z"/>
		<path id="path535" d="M250.1,285.4c-0.6,0-2.5,0-3.3,0.1V285c0.5-0.1,0.6-0.3,0.8-0.5c0.5-0.6,0.5-2,0.5-2.9c0-0.7,0-1.5,0-2.6
			c0-0.7,0-2-0.1-2.4c-0.1-1-0.2-2.5-2.2-2.5c-0.6,0-1.3,0.1-1.7,0.4v6.7c0,2.5,0.1,2.6,0.3,2.9c0.2,0.5,0.6,0.8,1.1,0.8v0.6
			c-1-0.1-2.2-0.1-3.2-0.1c-0.5,0-2.4,0-3.4,0.1V285c0.8-0.1,1.1-0.4,1.4-0.8c0.5-0.6,0.4-2.3,0.4-4.8v-2.3c0-2.7,0.1-3.4-1.8-3.7
			v-0.6c0.6,0,2.1-0.1,3.4-0.3c0.4-0.1,1.3-0.2,1.6-0.4l0.3,0.2l-0.1,1.6c1.1-1.2,2.3-1.7,3.7-1.7c2,0,3,1,3.4,2.2
			c0.4,1,0.4,2.3,0.4,3.1v3.8c0,1.9,0.1,2.2,0.3,2.6c0.4,0.6,1.1,0.8,1.6,0.9v0.6C252.8,285.5,251.2,285.4,250.1,285.4"/>
		<path id="path537" d="M258.5,285.7c-1.3,0-3-0.2-3.5-2.6c-0.2-1-0.2-2.3-0.2-3.6c0-2.1,0-3.6,0.1-5.7h-1.5v-0.7
			c0.9-0.2,1.9-0.7,2.5-1.5c0.6-0.7,1-1.6,1.1-2.7h1.4c-0.1,1.4-0.1,2.4-0.1,3.6l3.9-0.2v1.5l-3.9-0.1v6.2c0,2.1-0.1,3.9,2.3,3.9
			c0.5,0,0.9-0.1,1.4-0.2l0.2,0.5C260.9,285.7,258.8,285.7,258.5,285.7"/>
	</g>
</g>
</svg>
