<svg id="Layer_1" data-name="Layer 1" xmlns="http://www.w3.org/2000/svg" xmlns:xlink="http://www.w3.org/1999/xlink" viewBox="0 0 283.46 283.46"><defs><style>.cls-1{fill:none;}.cls-2{clip-path:url(#clip-path);}.cls-3{fill:#000018;}.cls-4{fill:#fff;}.cls-5{fill:#8dc63f;}.cls-6{fill:#231f20;}</style><clipPath id="clip-path"><rect class="cls-1" x="8.5" y="15.48" width="244.98" height="250.48"/></clipPath></defs><g class="cls-2"><rect class="cls-3" x="8.5" y="15.48" width="244.98" height="250.48"/><path class="cls-4" d="M74.27,230.56h2.25v15.72H74.27Z"/><path class="cls-4" d="M84.89,230.56h3.86c3.1,0,6.1.5,6.1,4.26a3.65,3.65,0,0,1-3.25,3.57v.05c.7.27,1,.61,1.54,1.58l3,6.26H93.54l-2.41-5.46c-.69-1.52-1.44-1.52-2.64-1.52H87.15v7H84.89Zm2.26,6.75h1.91c2.14,0,3.4-.93,3.4-2.45s-1.09-2.31-3.16-2.31H87.15Z"/><path class="cls-4" d="M103.4,230.56h8.8v2h-6.55v4.58h6v2h-6v5.18h6.55v2h-8.8Z"/><path class="cls-4" d="M120.28,230.56h2.25V244.3h6.58v2h-8.83Z"/><path class="cls-4" d="M141,230.56h2.37L150,246.28h-2.46l-1.59-4h-7.7l-1.6,4h-2.36Zm1.11,2.11L139,240.46h6.26Z"/><path class="cls-4" d="M156.8,230.56h3.06l6.92,12.65h.05V230.56h2.25v15.72h-2.87l-7.12-12.93h0v12.93H156.8Z"/><path class="cls-4" d="M177.44,230.56h4.63c4.66,0,8.37,2.89,8.37,7.73,0,5.26-3.19,8-8.37,8h-4.63Zm2.24,13.74h2.37c3.87,0,6-1.88,6-5.93a5.47,5.47,0,0,0-5.73-5.82h-2.64Z"/><path class="cls-5" d="M41.41,203c0,6.53,0,11.64.34,14.51.2,2,.62,3.46,2.66,3.74a30.12,30.12,0,0,0,3.41.27c.88,0,1.15.2,1.15.55s-.47.67-1.49.67c-4.29,0-8.58-.2-10.36-.2s-6.06.2-8.64.2c-.95,0-1.43-.12-1.43-.67,0-.35.27-.55,1-.55a11.42,11.42,0,0,0,2.45-.27c1.36-.28,1.71-1.77,2-3.74.34-2.87.34-8,.34-14.51V191c0-10.35,0-12.26-.13-14.44s-.69-3.41-2.93-3.88a13.71,13.71,0,0,0-2.66-.2c-.68,0-1.15-.15-1.15-.55s.54-.68,1.57-.68c1.76,0,3.73.07,5.51.07s3.34.13,4.29.13c2.59,0,16.42,0,18-.07a12.08,12.08,0,0,0,2.78-.27,4.44,4.44,0,0,1,1.1-.41c.27,0,.48.27.48.62s-.33,1.28-.55,3.06c-.06.68-.2,4.7-.33,5.52-.08.54-.21,1-.7,1s-.6-.34-.67-1.09a6.62,6.62,0,0,0-.41-2.58c-.48-1-1.91-2-4.49-2.06L42,174.92c-.41,0-.62.19-.62.94v17c0,.41.08.62.48.62l8.72-.06c1.16,0,2.11,0,3.06-.08a3.6,3.6,0,0,0,2.94-1.23c.33-.4.47-.67.88-.67s.41.2.41.61-.34,2.11-.55,4.22c-.13,1.37-.27,4.49-.27,5s0,1.3-.68,1.3c-.41,0-.55-.49-.55-1a7.3,7.3,0,0,0-.41-2.11A4,4,0,0,0,52,197.05c-1.7-.2-8.92-.2-10.08-.2-.34,0-.48.14-.48.6Z"/><path class="cls-5" d="M64.37,197c0-11.66,7.69-26.71,28.12-26.71,17,0,27.52,9.88,27.52,25.47s-10.9,27.93-28.2,27.93C72.26,223.68,64.37,209,64.37,197Zm46.11,1.28c0-15.24-8.79-24.72-20-24.72-7.84,0-16.76,4.36-16.76,21.32,0,14.16,7.83,25.4,20.92,25.4C99.44,220.27,110.48,218,110.48,198.27Z"/><path class="cls-5" d="M124.09,197c0-11.66,7.69-26.71,28.12-26.71,17,0,27.53,9.88,27.53,25.47s-10.9,27.93-28.2,27.93C132,223.68,124.09,209,124.09,197Zm46.1,1.28c0-15.24-8.77-24.72-19.94-24.72-7.83,0-16.76,4.36-16.76,21.32,0,14.16,7.83,25.4,20.91,25.4C159.17,220.27,170.19,218,170.19,198.27Z"/><path class="cls-5" d="M190.56,191c0-10.35,0-12.26-.14-14.44s-.68-3.41-2.92-3.88a13.85,13.85,0,0,0-2.66-.2c-.75,0-1.16-.15-1.16-.61s.48-.62,1.5-.62c3.61,0,7.9.2,9.81.2,2.11,0,6.41-.2,10.49-.2,8.52,0,19.88,0,27.31,7.76a24.37,24.37,0,0,1,6.61,17.3,27.11,27.11,0,0,1-7.42,19c-3.14,3.2-10.23,8-22.82,8-2.46,0-5.26-.2-7.83-.4s-5-.41-6.68-.41c-.75,0-2.25,0-3.88.08s-3.34.12-4.7.12c-.89,0-1.37-.2-1.37-.67s.28-.55,1.09-.55a11.6,11.6,0,0,0,2.46-.27c1.35-.28,1.69-1.77,2-3.74.34-2.87.34-8.25.34-14.51Zm8.51,7.49c0,7.22.07,12.47.14,13.76.07,1.7.21,4.43.75,5.17.89,1.3,3.54,2.73,8.92,2.73,7,0,11.58-1.37,15.67-4.9,4.36-3.76,5.72-10,5.72-17,0-8.64-3.62-14.23-6.54-17-6.27-6-14-6.82-19.34-6.82a18.15,18.15,0,0,0-4.43.49,1.22,1.22,0,0,0-.82,1.36c-.07,2.32-.07,8.24-.07,13.62Z"/><path class="cls-4" d="M80.87,170.83c0,1.32,0,1.43-.63,1.76-3.18,1.67-8,2.21-11.78,2.21-12,0-22.61-5.68-22.61-19.18a18.29,18.29,0,0,1,8.51-16c4.7-2.84,9.06-3.18,13.16-3.18a58.19,58.19,0,0,1,8.66.78,35.37,35.37,0,0,0,3.87.54c.58,0,.68.24.68.58a66.51,66.51,0,0,0-.34,8c0,.78-.15,1-.54,1s-.44-.25-.49-.64a6.86,6.86,0,0,0-1.66-4.06c-1.47-1.56-5.38-3.81-10.91-3.81-2.69,0-6.26.19-9.68,3-2.75,2.3-4.51,6-4.51,12,0,10.52,6.7,18.39,17,18.39a10.77,10.77,0,0,0,4.16-.54,1.74,1.74,0,0,0,.93-1.81v-4.6c0-2.44,0-4.3,0-5.78,0-1.65-.49-2.44-2.1-2.78a10,10,0,0,0-1.91-.14c-.44,0-.73-.1-.73-.4s.34-.48,1-.48c2.55,0,5.63.14,7.1.14s4.1-.14,5.73-.14c.62,0,1,.1,1,.48s-.3.4-.65.4a7.31,7.31,0,0,0-1.31.14c-1.33.24-1.81,1.09-1.86,2.78-.06,1.48-.06,3.44-.06,5.88Z"/><path class="cls-4" d="M86.76,155.62c0-8.37,5.53-19.17,20.19-19.17,12.19,0,19.76,7.09,19.76,18.3s-7.82,20.05-20.24,20.05C92.43,174.8,86.76,164.27,86.76,155.62Zm33.11.93c0-11-6.31-17.75-14.33-17.75-5.62,0-12,3.12-12,15.3,0,10.17,5.63,18.25,15,18.25C112,172.35,119.87,170.68,119.87,156.55Z"/><path class="cls-4" d="M129.67,155.62c0-8.37,5.53-19.17,20.19-19.17,12.19,0,19.76,7.09,19.76,18.3s-7.82,20.05-20.24,20.05C135.34,174.8,129.67,164.27,129.67,155.62Zm33.11.93c0-11-6.31-17.75-14.33-17.75-5.63,0-12,3.12-12,15.3,0,10.17,5.63,18.25,15,18.25C154.85,172.35,162.78,170.68,162.78,156.55Z"/><path class="cls-4" d="M177.42,151.32c0-7.44,0-8.81-.1-10.37s-.49-2.45-2.11-2.8a9.94,9.94,0,0,0-1.91-.14c-.53,0-.83-.1-.83-.44s.35-.44,1.08-.44c2.6,0,5.67.16,7,.16s4.6-.16,7.53-.16c6.11,0,14.28,0,19.62,5.57a17.49,17.49,0,0,1,4.74,12.43,19.42,19.42,0,0,1-5.33,13.64c-2.25,2.31-7.34,5.78-16.38,5.78-1.77,0-3.77-.15-5.64-.29s-3.57-.29-4.79-.29c-.54,0-1.62,0-2.79,0s-2.39.1-3.37.1c-.64,0-1-.14-1-.49s.19-.39.78-.39a8.56,8.56,0,0,0,1.76-.19c1-.2,1.23-1.28,1.42-2.69.25-2.06.25-5.92.25-10.43Zm6.11,5.37c0,5.18.05,8.95.1,9.88.05,1.23.15,3.19.54,3.73.64.93,2.54,2,6.4,2,5,0,8.32-1,11.26-3.53,3.13-2.69,4.11-7.14,4.11-12.18,0-6.22-2.6-10.22-4.7-12.23-4.5-4.3-10.07-4.89-13.9-4.89a13.39,13.39,0,0,0-3.17.34.9.9,0,0,0-.59,1c-.05,1.66-.05,5.91-.05,9.76Z"/><path class="cls-5" d="M194.21,49.52A32,32,0,1,1,149,47.37,32,32,0,0,1,194.21,49.52Z"/><path class="cls-5" d="M248.16.45A32,32,0,1,1,202.92-1.7,32,32,0,0,1,248.16.45Z"/><path class="cls-5" d="M262.94,71a32,32,0,1,1-45.23-2.14A32,32,0,0,1,262.94,71Z"/></g><path class="cls-6" d="M278.5,256.49a9.67,9.67,0,1,1-9.58-9.41A9.48,9.48,0,0,1,278.5,256.49Zm-16.93,0a7.32,7.32,0,0,0,7.35,7.51,7.2,7.2,0,0,0,7.17-7.46,7.27,7.27,0,1,0-14.52-.05Zm5.8,4.88h-2.18V252a26.31,26.31,0,0,1,3.61-.28,5,5,0,0,1,3.22.75,2.35,2.35,0,0,1,1,2,2.43,2.43,0,0,1-1.95,2.23v.11c.92.29,1.38,1,1.67,2.3a8.4,8.4,0,0,0,.68,2.3H271.1a7.27,7.27,0,0,1-.74-2.3c-.18-1-.76-1.43-2-1.43h-1Zm.06-5.28h1c1.2,0,2.18-.41,2.18-1.38s-.63-1.43-2-1.43a5.06,5.06,0,0,0-1.2.11Z"/></svg>