<svg id="Layer_1" data-name="Layer 1" xmlns="http://www.w3.org/2000/svg" width="190mm" height="43.93mm" viewBox="0 0 538.58 124.52"><rect x="5.2" y="5.21" width="121" height="114.11" style="fill:#fff"/><path d="M552.34,345.52H141.85V221H552.34Z" transform="translate(-13.76 -221)" style="fill:#35323b"/><path d="M206.16,257.36v1.15a.68.68,0,0,1-.76.77l-15.42,0a.27.27,0,0,0-.3.31l.12,49.92a.68.68,0,0,1-.76.77h-1.46a.68.68,0,0,1-.77-.76l-.12-49.92a.28.28,0,0,0-.31-.31l-14.8,0a.68.68,0,0,1-.77-.76v-1.15a.68.68,0,0,1,.77-.77l33.81-.09A.68.68,0,0,1,206.16,257.36Z" transform="translate(-13.76 -221)" style="fill:#fff"/><path d="M248.74,256.48h1.46a.68.68,0,0,1,.77.76l.13,52.14a.68.68,0,0,1-.77.77h-1.45a.68.68,0,0,1-.77-.77l-.06-24.46a.27.27,0,0,0-.31-.3l-27.83.07c-.21,0-.31.1-.31.3l.06,24.46a.68.68,0,0,1-.76.77h-1.46a.67.67,0,0,1-.77-.76l-.13-52.14a.68.68,0,0,1,.76-.77h1.46a.68.68,0,0,1,.77.76l.06,24.31a.28.28,0,0,0,.31.31l27.83-.07a.28.28,0,0,0,.31-.31L248,257.25A.68.68,0,0,1,248.74,256.48Z" transform="translate(-13.76 -221)" style="fill:#fff"/><path d="M297,259l-29.59.08a.28.28,0,0,0-.31.31l.05,22.08a.27.27,0,0,0,.31.3l21.17-.05a.69.69,0,0,1,.77.77v1.22a.68.68,0,0,1-.77.77l-21.16.06a.27.27,0,0,0-.31.3l.06,22.24a.27.27,0,0,0,.31.31l29.59-.08a.68.68,0,0,1,.77.77v1.15a.68.68,0,0,1-.77.76l-32.12.09a.69.69,0,0,1-.78-.77l-.13-52.14a.68.68,0,0,1,.77-.77l32.13-.08a.68.68,0,0,1,.77.77v1.15A.68.68,0,0,1,297,259Z" transform="translate(-13.76 -221)" style="fill:#fff"/><path d="M348.18,257v4.91a.68.68,0,0,1-.77.77l-14.72,0c-.21,0-.31.11-.31.31l.12,46.16a.68.68,0,0,1-.76.77h-5.83a.67.67,0,0,1-.77-.76L325,263q0-.32-.3-.3l-14,0a.68.68,0,0,1-.77-.77v-4.9a.68.68,0,0,1,.77-.77l36.72-.09A.68.68,0,0,1,348.18,257Z" transform="translate(-13.76 -221)" style="fill:#fff"/><path d="M383.28,309.21l-2.79-9a.3.3,0,0,0-.3-.23l-21.55.06a.31.31,0,0,0-.31.23l-2.73,9a.9.9,0,0,1-.92.61l-6.21,0c-.57,0-.77-.28-.62-.84l16.66-52.26a.9.9,0,0,1,.92-.62l7.67,0a.9.9,0,0,1,.92.61L391.1,309l.07.3c0,.36-.22.54-.69.54l-6.28,0A.89.89,0,0,1,383.28,309.21Zm-23-15.09a.36.36,0,0,0,.27.11l17.64,0a.4.4,0,0,0,.27-.11.23.23,0,0,0,0-.27l-9-28.43a.25.25,0,0,0-.23-.15.24.24,0,0,0-.23.15l-8.82,28.47A.21.21,0,0,0,360.27,294.12Z" transform="translate(-13.76 -221)" style="fill:#fff"/><path d="M406,308.53a14.93,14.93,0,0,1-6.68-5.19,13.52,13.52,0,0,1-2.36-7.89v-2.23a.67.67,0,0,1,.76-.77h5.6a.68.68,0,0,1,.77.76V295a7.76,7.76,0,0,0,3.39,6.44c2.25,1.68,5.35,2.51,9.28,2.5,3.53,0,6.19-.75,8-2.24a7.18,7.18,0,0,0,2.67-5.83,6.14,6.14,0,0,0-1.39-4.06,13,13,0,0,0-4-3.1,77.55,77.55,0,0,0-7.72-3.39,77.35,77.35,0,0,1-8.86-3.89,16.31,16.31,0,0,1-5.42-4.63,11.68,11.68,0,0,1-2.16-7.24,12.5,12.5,0,0,1,4.69-10.36q4.69-3.76,12.75-3.79a24.31,24.31,0,0,1,10,1.89,15.34,15.34,0,0,1,6.64,5.35,13.88,13.88,0,0,1,2.36,8v1.54a.68.68,0,0,1-.76.77h-5.75a.68.68,0,0,1-.77-.77v-1.15a8.31,8.31,0,0,0-3.2-6.62q-3.19-2.64-8.79-2.62-4.75,0-7.36,2a6.65,6.65,0,0,0-2.59,5.64,6.36,6.36,0,0,0,1.32,4.14,11.3,11.3,0,0,0,3.88,2.87q2.57,1.24,7.86,3.23a89.06,89.06,0,0,1,8.83,3.93,17,17,0,0,1,5.61,4.74,11.77,11.77,0,0,1,2.24,7.32,13,13,0,0,1-4.92,10.71q-4.93,4-13.59,4A26.08,26.08,0,0,1,406,308.53Z" transform="translate(-13.76 -221)" style="fill:#fff"/><path d="M477.12,256.68v4.9a.68.68,0,0,1-.76.77l-14.73,0c-.2,0-.3.1-.3.31l.11,46.16a.67.67,0,0,1-.76.76l-5.83,0a.68.68,0,0,1-.77-.77L454,262.72a.28.28,0,0,0-.31-.31l-14,0a.68.68,0,0,1-.77-.77v-4.91a.68.68,0,0,1,.76-.77l36.73-.09A.68.68,0,0,1,477.12,256.68Z" transform="translate(-13.76 -221)" style="fill:#fff"/><path d="M520.9,262.17l-27.22.06a.28.28,0,0,0-.31.31l0,16.48a.28.28,0,0,0,.31.31l18.71,0a.67.67,0,0,1,.77.76v4.83a.68.68,0,0,1-.77.77l-18.71.05a.27.27,0,0,0-.3.3l0,16.87a.28.28,0,0,0,.31.31l27.22-.07a.68.68,0,0,1,.77.76v4.84a.67.67,0,0,1-.76.76l-34.13.09a.67.67,0,0,1-.76-.76L486,256.66a.67.67,0,0,1,.76-.77l34.12-.09a.68.68,0,0,1,.77.77v4.83A.68.68,0,0,1,520.9,262.17Z" transform="translate(-13.76 -221)" style="fill:#fff"/><path d="M145.16,345.52H13.76V221h131.4ZM19,340.32H140V226.21H19Z" transform="translate(-13.76 -221)" style="fill:#35323b"/><path d="M84.93,288" transform="translate(-13.76 -221)" style="fill:none;stroke:#35323b;stroke-linecap:round;stroke-miterlimit:10;stroke-width:4.922629859459371px"/><path d="M76.46,286.8a2.46,2.46,0,0,1-4.92,0l-.05-23.92,4.92,0Z" transform="translate(-13.76 -221)" style="fill:#35323b"/><path d="M87.12,286.75a2.46,2.46,0,1,1-4.92,0l0-23.91,4.9,0Z" transform="translate(-13.76 -221)" style="fill:#35323b"/><path d="M113.79,254.89a9.54,9.54,0,0,0,1.09-4.48,9.42,9.42,0,0,0-9.45-9.43h0a9.36,9.36,0,0,0-6.2,2.35h0a44,44,0,0,0-19.74-4.63h-.13a44.57,44.57,0,0,0,.13,89.14h.12a44.54,44.54,0,0,0,44.4-44.5v-.19A44.31,44.31,0,0,0,113.79,254.89Zm-8.36-9a4.47,4.47,0,0,1,3.21,1.33,4.55,4.55,0,0,1,1.36,3.25,1.36,1.36,0,0,1,0,.41h0a4.1,4.1,0,0,1-1,2.4,1.71,1.71,0,0,1-.32.4,4.31,4.31,0,0,1-1.76,1.09h0a4.31,4.31,0,0,1-1.48.27,4.61,4.61,0,0,1-4.58-4.56,1.63,1.63,0,0,1,.05-.49,4.14,4.14,0,0,1,1-2.35,1.35,1.35,0,0,1,.32-.4,4.19,4.19,0,0,1,1.83-1.11A3.68,3.68,0,0,1,105.43,245.86Zm2.1,65.35A39,39,0,0,1,82,322.8l0-14.46a20.34,20.34,0,0,0,17.81-20.45L99,262.81l-4.92,0L94.87,288a15.29,15.29,0,0,1-15,15.55h-.71A14.77,14.77,0,0,1,68.52,299a15.8,15.8,0,0,1-4.45-10.92l.65-25.23-4.93,0-.64,25.15A20.62,20.62,0,0,0,65,302.47a19.55,19.55,0,0,0,12,5.87l0,14.48a39.63,39.63,0,0,1,2.25-79.2h.1a39.18,39.18,0,0,1,17,3.86h0a9.15,9.15,0,0,0-.47,3,9.42,9.42,0,0,0,9.45,9.44h0a9.12,9.12,0,0,0,4.9-1.39h0a39.6,39.6,0,0,1-2.83,52.7Z" transform="translate(-13.76 -221)" style="fill:#35323b"/></svg>